HIERARCHY
ROOT Hips
{
	OFFSET 0.000000 0.000000 0.000000
	CHANNELS 6 Xposition Yposition Zposition Xrotation Yrotation Zrotation
	JOINT LeftUpLeg_virtual
	{
		OFFSET 0.000000 0.000000 0.000000
		CHANNELS 3 Xrotation Yrotation Zrotation
		JOINT LeftUpLeg
		{
			OFFSET 10.205400 -3.823500 0.155100
			CHANNELS 3 Xrotation Yrotation Zrotation
			JOINT LeftLeg
			{
				OFFSET 0.708757 -12.982077 0.567790
				CHANNELS 3 Xrotation Yrotation Zrotation
				JOINT LeftFoot
				{
					OFFSET -0.708756 -10.717838 -2.184338
					CHANNELS 3 Xrotation Yrotation Zrotation
					JOINT LeftToeBase
					{
						OFFSET 0.108149 -7.191104 7.560241
						CHANNELS 3 Xrotation Yrotation Zrotation
						JOINT LeftToe_End
						{
							OFFSET 0.070230 0.081724 4.490308
							CHANNELS 3 Xrotation Yrotation Zrotation
							End Site
							{
								OFFSET 0 0 0
							}
						}
					}
				}
			}
		}
	}
	JOINT RightUpLeg_virtual
	{
		OFFSET 0.000000 0.000000 0.000000
		CHANNELS 3 Xrotation Yrotation Zrotation
		JOINT RightUpLeg
		{
			OFFSET -10.205400 -3.823500 0.005500
			CHANNELS 3 Xrotation Yrotation Zrotation
			JOINT RightLeg
			{
				OFFSET -0.708756 -12.982134 0.610632
				CHANNELS 3 Xrotation Yrotation Zrotation
				JOINT RightFoot
				{
					OFFSET 0.708754 -10.717769 -1.945823
					CHANNELS 3 Xrotation Yrotation Zrotation
					JOINT RightToeBase
					{
						OFFSET -0.108140 -7.191069 7.372968
						CHANNELS 3 Xrotation Yrotation Zrotation
						JOINT RightToe_End
						{
							OFFSET -0.070227 0.081735 4.479403
							CHANNELS 3 Xrotation Yrotation Zrotation
							End Site
							{
								OFFSET 0 0 0
							}
						}
					}
				}
			}
		}
	}
	JOINT Spine_virtual
	{
		OFFSET 0.000000 0.000000 0.000000
		CHANNELS 3 Xrotation Yrotation Zrotation
		JOINT Spine
		{
			OFFSET 0.000000 6.876099 0.125700
			CHANNELS 3 Xrotation Yrotation Zrotation
			JOINT Spine1
			{
				OFFSET 0.000000 5.730043 0.104720
				CHANNELS 3 Xrotation Yrotation Zrotation
				JOINT Spine1_split
				{
					OFFSET 0.000000 5.730043 0.104720
					CHANNELS 3 Xrotation Yrotation Zrotation
					JOINT Spine2
					{
						OFFSET 0.000000 5.730043 0.104720
						CHANNELS 3 Xrotation Yrotation Zrotation
						JOINT Neck_virtual
						{
							OFFSET 0.000000 0.000000 0.000000
							CHANNELS 3 Xrotation Yrotation Zrotation
							JOINT Neck
							{
								OFFSET 0.000000 10.314075 0.188496
								CHANNELS 3 Xrotation Yrotation Zrotation
								JOINT Head
								{
									OFFSET 0.000000 7.643700 -2.377400
									CHANNELS 3 Xrotation Yrotation Zrotation
									JOINT HeadTop_End
									{
										OFFSET 0.000000 43.788605 -13.619600
										CHANNELS 3 Xrotation Yrotation Zrotation
										End Site
										{
											OFFSET 0 0 0
										}
									}
								}
							}
						}
						JOINT LeftShoulder_virtual
						{
							OFFSET 0.000000 0.000000 0.000000
							CHANNELS 3 Xrotation Yrotation Zrotation
							JOINT LeftShoulder
							{
								OFFSET 2.196100 4.412489 0.087492
								CHANNELS 3 Xrotation Yrotation Zrotation
								JOINT LeftShoulder_split
								{
									OFFSET 2.196100 4.412489 0.087492
									CHANNELS 3 Xrotation Yrotation Zrotation
									JOINT LeftArm
									{
										OFFSET 8.771219 -2.981674 -0.026999
										CHANNELS 3 Xrotation Yrotation Zrotation
										JOINT LeftForeArm
										{
											OFFSET 8.512804 0.000000 -0.000000
											CHANNELS 3 Xrotation Yrotation Zrotation
											JOINT LeftHand
											{
												OFFSET 18.484802 0.000000 -0.000000
												CHANNELS 3 Xrotation Yrotation Zrotation
												End Site
												{
													OFFSET 0 0 0
												}
											}
										}
									}
								}
							}
						}
						JOINT RightShoulder_virtual
						{
							OFFSET 0.000000 0.000000 0.000000
							CHANNELS 3 Xrotation Yrotation Zrotation
							JOINT RightShoulder
							{
								OFFSET -2.196100 4.412496 0.070690
								CHANNELS 3 Xrotation Yrotation Zrotation
								JOINT RightShoulder_split
								{
									OFFSET -2.196100 4.412496 0.070690
									CHANNELS 3 Xrotation Yrotation Zrotation
									JOINT RightArm
									{
										OFFSET -8.771282 -2.981682 -0.094208
										CHANNELS 3 Xrotation Yrotation Zrotation
										JOINT RightForeArm
										{
											OFFSET -8.494598 0.000000 0.000000
											CHANNELS 3 Xrotation Yrotation Zrotation
											JOINT RightHand
											{
												OFFSET -18.483803 0.000000 0.000001
												CHANNELS 3 Xrotation Yrotation Zrotation
												End Site
												{
													OFFSET 0 0 0
												}
											}
										}
									}
								}
							}
						}
					}
				}
			}
		}
	}
}
MOTION
Frames: 7
Frame Time: 0.03333333
-0.298108 30.091476 0.304478 0.000000 0.000000 0.000000 14.462919 -57.005698 13.317201 -43.065422 9.158245 30.173843 44.988308 -11.411477 -9.393943 -7.046877 -2.091252 -4.679418 1.646138 0.093067 -0.062209 0.000000 0.000000 0.000000 15.429995 -57.488876 14.186371 -25.598890 -7.602388 -23.385055 48.244508 9.742142 0.832793 -37.123369 -8.124461 12.204395 7.505874 0.203026 0.937786 0.000000 0.000000 0.000000 15.977090 -59.725380 13.879417 5.641723 1.122077 -3.399113 -4.394629 5.214565 -3.819844 0.857301 -2.315431 0.497708 0.000000 0.000000 0.000000 -2.506707 4.752713 -3.256574 -15.412653 7.857419 8.345181 3.519852 34.563646 2.172046 0.000000 0.000000 0.000000 -3.076693 5.121333 -3.743506 -29.516014 6.389345 6.322483 -7.239523 6.179652 -6.953585 32.879533 -10.249156 -42.400872 -24.329605 -85.696116 -24.482741 0.000000 0.000000 0.000000 -3.685615 4.389612 -3.690189 1.887713 16.415405 11.283562 -5.371599 0.754191 -1.153500 12.961163 17.321186 58.946213 5.979466 66.983604 -8.334596 0.000000 0.000000 0.000000 
-0.280395 30.099789 0.391298 0.000000 0.000000 0.000000 14.472163 -56.819903 13.225840 -43.244912 9.736170 30.418586 44.489445 -11.174372 -9.744355 -7.323815 -2.212762 -4.493606 1.716920 0.067505 0.001197 0.000000 0.000000 0.000000 15.597541 -57.654569 14.186228 -25.267803 -7.588196 -23.279957 48.347525 9.731140 0.833373 -37.466128 -8.144597 11.779987 7.748485 0.156094 1.025339 0.000000 0.000000 0.000000 16.325694 -59.782993 14.110045 5.657688 1.170291 -3.498895 -4.373185 5.227320 -3.886832 1.108662 -2.172836 0.446203 0.000000 0.000000 0.000000 -2.344216 4.818503 -3.364376 -14.870082 8.533595 8.090270 3.286216 34.431161 2.426116 0.000000 0.000000 0.000000 -2.777207 5.135844 -3.751376 -29.497070 5.866835 6.321233 -6.859533 5.202751 -6.462966 33.121022 -11.442427 -42.689037 -22.160499 -84.941271 -22.024461 0.000000 0.000000 0.000000 -3.545987 4.386067 -3.771443 1.932537 16.300409 11.618789 -6.074613 1.181889 -0.690554 13.780231 17.003770 58.789282 5.242515 66.867320 -7.612734 0.000000 0.000000 0.000000 
-0.261367 30.118515 0.428394 0.000000 0.000000 0.000000 14.477754 -56.950852 13.075137 -43.041410 10.480581 30.740755 43.619712 -10.881724 -10.056027 -7.713635 -2.233383 -4.323819 1.938957 0.022850 -0.065000 0.000000 0.000000 0.000000 15.635254 -57.810414 14.013442 -24.790178 -7.760000 -22.981876 48.370433 9.745495 0.805372 -38.007616 -8.264484 11.346419 7.543395 0.073925 1.129934 0.000000 0.000000 0.000000 16.281211 -59.648308 14.050815 5.802542 1.258740 -3.596923 -4.347946 5.386018 -4.036870 1.186411 -2.037839 0.519746 0.000000 0.000000 0.000000 -2.245200 5.006495 -3.604273 -14.415188 9.277006 7.828743 2.770111 34.276761 2.879398 0.000000 0.000000 0.000000 -2.573832 5.340286 -3.856678 -29.460993 4.813099 6.019282 -6.179223 4.169199 -6.050365 33.450384 -12.901242 -42.731842 -16.129362 -82.864880 -15.696072 0.000000 0.000000 0.000000 -3.260046 4.515348 -3.977281 1.931059 15.911580 11.961898 -6.251225 1.350401 -0.646035 14.859731 17.711514 57.985000 4.056257 67.031470 -6.704828 0.000000 0.000000 0.000000 
-0.242604 30.134457 0.399126 0.000000 0.000000 0.000000 14.427557 -57.215129 12.862507 -42.589805 11.174304 31.047380 42.802504 -10.649832 -10.276448 -8.129099 -2.186537 -4.204197 2.294777 -0.034638 -0.259241 0.000000 0.000000 0.000000 15.543337 -57.911514 13.750623 -24.338739 -8.021901 -22.667240 48.102219 9.803522 0.773919 -38.622818 -8.446283 11.050531 7.003282 -0.038159 1.230576 0.000000 0.000000 0.000000 15.945208 -59.266002 13.773523 6.041558 1.300179 -3.634545 -4.306956 5.643307 -4.203800 0.937312 -1.855458 0.612969 0.000000 0.000000 0.000000 -2.224795 5.243162 -3.859571 -14.175231 10.111474 7.580327 2.227181 34.236463 3.210880 0.000000 0.000000 0.000000 -2.433818 5.632869 -4.008524 -29.402612 3.465727 5.467701 -5.697023 3.369901 -5.981127 33.652806 -14.290010 -42.770146 -11.320112 -79.684197 -10.558013 0.000000 0.000000 0.000000 -2.859731 4.736218 -4.232238 1.903216 15.350662 12.255223 -6.150409 1.278961 -0.834774 16.208929 19.186029 56.418824 2.590400 67.394808 -5.774579 0.000000 0.000000 0.000000 
-0.238365 30.157631 0.309486 0.000000 0.000000 0.000000 14.210564 -57.483104 12.533006 -42.107928 11.644968 31.314935 42.357449 -10.523783 -10.441478 -8.368502 -2.133946 -4.180109 2.687023 -0.096135 -0.532083 0.000000 0.000000 0.000000 15.193612 -57.871223 13.381364 -23.931070 -8.284937 -22.434752 47.526136 9.932523 0.763842 -39.092799 -8.614425 11.038289 6.380323 -0.162670 1.317116 0.000000 0.000000 0.000000 15.379706 -58.610379 13.287783 6.322028 1.209045 -3.572355 -4.235773 5.924229 -4.329017 0.735284 -1.746882 0.394970 0.000000 0.000000 0.000000 -2.261890 5.441818 -4.003749 -13.948606 11.100268 7.341156 1.869144 34.441663 3.136274 0.000000 0.000000 0.000000 -2.370220 5.900580 -4.139401 -29.337377 2.027245 4.683018 -5.802892 3.045539 -6.363398 33.740499 -15.404214 -42.973344 -8.766707 -76.125259 -7.616920 0.000000 0.000000 0.000000 -2.434275 4.956799 -4.431043 1.906639 14.775825 12.452113 -5.882212 1.149426 -1.066599 17.826135 21.201718 54.077463 0.988695 67.811204 -4.859577 0.000000 0.000000 0.000000 
-0.263154 30.171022 0.179140 0.000000 0.000000 0.000000 13.720336 -57.560443 12.019351 -41.878943 11.784473 31.613916 42.424463 -10.495831 -10.629306 -8.284740 -2.153443 -4.225666 2.883922 -0.161433 -0.789399 0.000000 0.000000 0.000000 14.592175 -57.772110 12.885092 -23.526385 -8.524540 -22.282587 46.792506 10.074356 0.826986 -39.373961 -8.745559 11.257420 5.926760 -0.285091 1.405717 0.000000 0.000000 0.000000 14.659348 -57.798174 12.661339 6.567978 0.905828 -3.387392 -4.180147 6.151821 -4.381237 0.758988 -1.455612 0.103901 0.000000 0.000000 0.000000 -2.359346 5.551118 -3.965035 -13.584825 12.257364 7.147401 1.943810 34.913229 2.500410 0.000000 0.000000 0.000000 -2.326928 6.083800 -4.201024 -29.276004 0.671331 3.794064 -6.266604 3.145841 -7.089042 33.887656 -16.072241 -43.366278 -7.523149 -72.993152 -5.994790 0.000000 0.000000 0.000000 -2.018067 5.131614 -4.508664 1.988464 14.359038 12.454219 -5.549740 1.125506 -1.186376 19.700255 23.552756 51.066176 -0.599614 68.163847 -3.981570 0.000000 0.000000 0.000000 
-0.343642 30.163296 0.070526 0.000000 0.000000 0.000000 13.010731 -57.360052 11.322197 -42.038844 11.667158 32.010628 42.967928 -10.376659 -10.904493 -7.896299 -2.258218 -4.134514 2.922071 -0.236497 -0.998419 0.000000 0.000000 0.000000 13.755881 -57.649290 12.250580 -23.024638 -8.740679 -22.172831 46.107636 10.148298 0.975703 -39.662687 -8.837848 11.457463 5.773479 -0.369121 1.514739 0.000000 0.000000 0.000000 13.897382 -56.997051 11.934623 6.751042 0.474482 -3.109754 -4.093478 6.340172 -4.336249 0.948978 -1.099279 -0.036293 0.000000 0.000000 0.000000 -2.500000 5.616541 -3.700762 -13.052499 13.551982 7.076987 2.339695 35.560724 1.458797 0.000000 0.000000 0.000000 -2.262340 6.207687 -4.125580 -29.247529 -0.542309 3.076478 -7.096885 3.347395 -8.216656 34.341098 -16.112879 -43.858991 -7.316636 -70.794890 -5.412430 0.000000 0.000000 0.000000 -1.727950 5.246215 -4.439141 2.098307 14.187397 12.396873 -5.316807 1.109608 -1.065325 21.681037 26.108388 47.582455 -2.163868 68.113317 -3.006952 0.000000 0.000000 0.000000 
